<?xml version="1.0" standalone="no"?>
<!DOCTYPE svg PUBLIC "-//W3C//DTD SVG 20010904//EN"
 "http://www.w3.org/TR/2001/REC-SVG-20010904/DTD/svg10.dtd">
<svg version="1.0" xmlns="http://www.w3.org/2000/svg"
 width="100.000000pt" height="100.000000pt" viewBox="0 0 100.000000 100.000000"
 preserveAspectRatio="xMidYMid meet">
<metadata>
Created by potrace 1.16, written by Peter Selinger 2001-2019
</metadata>
<g transform="translate(0.000000,100.000000) scale(0.100000,-0.100000)"
fill="#000000" stroke="none">
<path d="M445 975 c-15 -14 -25 -36 -25 -53 l0 -30 -172 -42 c-186 -46 -222
-60 -238 -89 -18 -35 -10 -83 70 -401 89 -354 92 -360 173 -360 48 1 424 93
439 108 7 7 18 6 33 -4 20 -13 28 -13 57 -1 18 8 39 21 46 30 16 19 172 627
172 668 0 36 -17 72 -40 87 -28 17 -411 112 -453 112 -27 0 -45 -7 -62 -25z
m277 -45 c111 -28 209 -55 218 -60 10 -5 23 -22 29 -38 11 -25 2 -68 -68 -346
-81 -327 -97 -366 -142 -366 -25 0 -30 13 -19 47 9 24 -3 83 -70 351 -44 178
-87 333 -95 346 -18 28 -56 46 -95 46 -16 0 -32 5 -36 12 -8 13 39 58 62 58 8
0 105 -23 216 -50z m-183 -74 c18 -19 41 -96 102 -342 70 -278 79 -321 68
-346 -6 -16 -19 -33 -29 -38 -20 -11 -412 -110 -435 -110 -9 0 -29 12 -43 28
-23 23 -38 72 -107 349 l-79 322 20 28 c18 25 43 34 220 80 232 60 252 62 283
29z"/>
<path d="M328 579 c-9 -5 -19 -23 -23 -40 -5 -21 -17 -35 -40 -46 -52 -25 -54
-63 -4 -88 20 -11 29 -23 29 -41 0 -60 40 -83 76 -43 14 16 28 20 62 17 56 -4
73 15 54 64 -10 26 -9 36 3 55 32 48 8 90 -44 80 -21 -5 -34 -1 -47 14 -27 30
-47 39 -66 28z m107 -71 c39 3 45 -10 19 -47 -13 -18 -14 -28 -5 -47 20 -45
15 -52 -32 -47 -34 4 -46 1 -61 -16 -27 -30 -36 -26 -36 13 0 27 -7 39 -30 56
-38 27 -38 34 0 50 22 9 33 22 41 52 l10 40 30 -28 c22 -21 38 -28 64 -26z"/>
</g>
</svg>
